<svg width="4069" height="1183" viewBox="0 0 4069 1183" fill="none" xmlns="http://www.w3.org/2000/svg">
<path d="M751 756.103V8.39018H967.555C1031.69 8.39018 1078.9 38.9897 1109.2 100.189C1125.03 132.433 1132.94 164.678 1132.94 196.922C1132.94 228.838 1129.94 256.805 1123.93 280.824C1117.93 304.514 1108.65 326.724 1096.1 347.452C1083.82 367.852 1066.62 384.139 1044.52 396.313C1022.41 408.487 996.757 414.574 967.555 414.574H811.586V756.103H751ZM811.586 353.375H926.209C970.421 353.375 1005.76 341.694 1032.24 318.333C1058.98 294.972 1072.35 259.273 1072.35 211.235C1072.35 163.197 1058.98 127.662 1032.24 104.63C1005.49 81.2696 970.148 69.5892 926.209 69.5892H811.586V353.375Z" fill="#7B7B7B"/>
<path d="M1216.04 756.103V8.39018H1424.82C1490.04 8.39018 1538.9 38.9897 1571.37 100.189C1589.11 133.42 1597.98 168.297 1597.98 204.819C1597.98 248.909 1589.25 289.214 1571.78 325.736C1552.68 365.878 1521.57 391.542 1478.45 402.729L1595.52 756.103H1529.21L1416.22 414.574H1276.63V756.103H1216.04ZM1276.63 353.375H1430.55C1459.21 353.375 1483.63 342.517 1503.83 320.801C1526.21 296.782 1537.39 259.273 1537.39 208.274C1537.39 140.494 1507.1 97.0629 1446.52 77.9793C1428.5 72.3859 1408.85 69.5892 1387.57 69.5892H1276.63V353.375Z" fill="#7B7B7B"/>
<path d="M1676.99 597.677C1664.71 564.774 1655.7 530.556 1649.97 495.021C1644.24 459.157 1641.37 422.306 1641.37 384.468C1641.37 346.63 1643.97 309.779 1649.15 273.915C1654.34 238.051 1662.8 203.339 1674.53 169.778C1686.27 136.217 1700.73 107.098 1717.93 82.4212C1735.39 57.4152 1757.22 37.509 1783.42 22.7028C1809.62 7.56761 1838.42 0 1869.8 0C1901.46 0 1929.84 7.73213 1954.95 23.1964C1980.33 38.3316 2001.34 58.5668 2017.99 83.9018C2034.91 108.908 2049.1 138.191 2060.57 171.752C2082.13 234.925 2092.91 305.995 2092.91 384.961C2092.91 529.404 2061.93 636.667 1999.98 706.749C1966.41 744.916 1923.43 764 1871.03 764C1840.74 764 1812.76 756.761 1787.11 742.284C1761.46 727.478 1739.76 707.901 1722.02 683.553C1704.55 658.876 1689.54 630.251 1676.99 597.677ZM1724.88 198.403C1716.7 226.37 1710.83 255.818 1707.28 286.747C1703.73 317.346 1701.96 352.223 1701.96 391.377C1701.96 430.531 1705.1 468.699 1711.38 505.879C1717.93 542.73 1727.61 576.126 1740.44 606.067C1753.54 636.009 1771.14 659.699 1793.25 677.137C1815.63 694.246 1840.19 702.801 1866.94 702.801C1893.95 702.801 1917.01 696.385 1936.12 683.553C1955.5 670.392 1971.05 653.447 1982.79 632.718C1994.52 611.99 2004.21 587.313 2011.85 558.687C2025.5 508.017 2032.32 450.109 2032.32 384.961C2032.32 276.711 2015.81 192.81 1982.79 133.256C1971.05 111.869 1955.63 94.5952 1936.53 81.4341C1917.42 67.944 1895.59 61.199 1871.03 61.199C1846.47 61.199 1824.36 67.1215 1804.71 78.9664C1785.33 90.8114 1769.23 106.769 1756.41 126.84C1743.85 146.581 1733.35 170.436 1724.88 198.403Z" fill="#7B7B7B"/>
<path d="M2191.15 593.235C2179.69 559.345 2171.37 524.469 2166.18 488.605C2161.27 452.741 2158.81 417.535 2158.81 382.987C2158.81 348.11 2160.72 315.701 2164.55 285.76C2168.37 255.818 2174.1 226.699 2181.74 198.403C2189.38 170.107 2199.48 144.114 2212.03 120.424C2224.86 96.4048 2239.32 75.3471 2255.42 57.2506C2290.36 19.0835 2334.02 0 2386.42 0C2424.9 0 2461.06 13.9836 2494.9 41.9509C2534.48 74.5246 2563.27 131.775 2581.28 213.703L2521.92 231.47C2521.65 229.167 2521.24 226.041 2520.69 222.093C2520.42 217.816 2518.92 209.755 2516.19 197.91C2513.74 186.065 2510.73 174.878 2507.19 164.349C2503.64 153.491 2498.18 141.646 2490.81 128.814C2483.72 115.653 2475.66 104.301 2466.66 94.7597C2445.92 72.3859 2419.72 61.199 2388.06 61.199C2356.4 61.199 2329.38 70.0827 2307.01 87.8501C2284.63 105.618 2267.3 129.966 2255.02 160.894C2231.27 220.119 2219.4 292.176 2219.4 377.065C2219.4 478.405 2230.32 554.081 2252.15 604.093C2280.81 669.898 2325.97 702.801 2387.65 702.801C2464.34 702.801 2508.69 649.499 2520.69 542.894C2523.15 519.862 2524.38 493.705 2524.38 464.421H2386.42V403.222H2583.74V756.103H2534.61V661.344C2503.77 712.672 2471.16 744.258 2436.77 756.103C2421.49 761.368 2401.3 764 2376.19 764C2351.08 764 2325.43 756.432 2299.23 741.297C2273.3 726.162 2251.74 706.091 2234.55 681.085C2217.35 656.079 2202.89 626.796 2191.15 593.235Z" fill="#7B7B7B"/>
<path d="M2691.4 756.103V8.39018H2900.18C2965.4 8.39018 3014.26 38.9897 3046.73 100.189C3064.47 133.42 3073.34 168.297 3073.34 204.819C3073.34 248.909 3064.61 289.214 3047.14 325.736C3028.04 365.878 2996.93 391.542 2953.81 402.729L3070.88 756.103H3004.57L2891.58 414.574H2751.99V756.103H2691.4ZM2751.99 353.375H2905.91C2934.57 353.375 2958.99 342.517 2979.19 320.801C3001.57 296.782 3012.75 259.273 3012.75 208.274C3012.75 140.494 2982.46 97.0629 2921.87 77.9793C2903.86 72.3859 2884.21 69.5892 2862.93 69.5892H2751.99V353.375Z" fill="#7B7B7B"/>
<path d="M3139.25 756.103V8.39018H3475.34V69.5892H3199.84V332.646H3397.56V393.845H3199.84V690.463H3490.9V756.103H3139.25Z" fill="#7B7B7B"/>
<path d="M3526.92 574.481L3583 550.791C3583.28 550.791 3583.82 553.587 3584.64 559.181C3585.73 564.774 3587.51 572.013 3589.96 580.897C3592.69 589.78 3596.24 599.651 3600.61 610.509C3604.97 621.367 3611.11 632.225 3619.03 643.083C3627.21 653.941 3636.63 663.811 3647.27 672.695C3670.74 692.766 3701.72 702.801 3740.2 702.801C3778.68 702.801 3807.34 690.134 3826.17 664.798C3845 639.463 3854.41 608.37 3854.41 571.519C3854.41 534.339 3848.41 505.221 3836.4 484.163C3824.67 462.776 3803.93 444.68 3774.18 429.873C3765.44 425.596 3753.98 420.496 3739.79 414.574L3700.9 398.287C3633.49 371.307 3588.19 336.759 3564.99 294.643C3548.89 265.36 3540.84 231.141 3540.84 191.987C3540.84 145.594 3556.12 102.327 3586.69 62.186C3601.15 43.7606 3619.57 28.7898 3641.95 17.2739C3664.33 5.75797 3687.8 0 3712.36 0C3737.2 0 3759.03 4.11283 3777.86 12.3385C3796.97 20.2351 3812.25 30.1059 3823.71 41.9509C3835.45 53.7959 3845.95 67.4505 3855.23 82.9147C3864.51 98.379 3871.2 112.198 3875.29 124.372L3887.16 160.894C3890.71 172.41 3892.89 179.155 3893.71 181.129L3840.5 205.806C3839.95 204.161 3838.58 199.061 3836.4 190.506C3834.49 181.623 3832.72 174.384 3831.08 168.791C3829.72 163.197 3827.12 155.465 3823.3 145.594C3819.75 135.724 3815.93 127.498 3811.84 120.917C3808.02 114.008 3802.83 106.605 3796.28 98.708C3790.01 90.4823 3783.18 83.9018 3775.82 78.9664C3757.8 67.1215 3737.47 61.199 3714.82 61.199C3681.25 61.199 3653.96 73.2084 3632.95 97.2274C3611.93 120.917 3601.42 152.504 3601.42 191.987C3601.42 235.09 3610.7 265.36 3629.26 282.798C3639.36 292.34 3647.82 299.25 3654.64 303.527C3661.74 307.804 3669.93 312.082 3679.2 316.359C3688.76 320.308 3695.72 323.433 3700.08 325.736C3704.45 327.711 3713.05 331.001 3725.87 335.607L3760.26 348.439C3823.57 371.8 3867.1 406.513 3890.85 452.576C3906.95 483.834 3915 521.672 3915 566.09C3915 598.335 3906.54 632.06 3889.62 667.266C3868.61 712.014 3836.67 741.626 3793.83 756.103C3777.73 761.368 3758.89 764 3737.33 764C3716.05 764 3695.03 760.545 3674.29 753.636C3653.55 746.726 3636.08 737.678 3621.89 726.491C3607.97 715.304 3595.28 702.966 3583.82 689.475C3572.63 675.985 3563.63 662.495 3556.8 649.005C3544.25 624.328 3535.38 602.941 3530.19 584.845L3526.92 574.481Z" fill="#7B7B7B"/>
<path d="M60.0001 863.5L125 783.5C99.6668 682.333 84.0186 424.58 245.5 237.5C406.981 50.42 585.333 2.66579 659 3.99912C526.5 -14.0006 221.6 25.6 62.0001 328C-48.7999 542 14.5001 774.166 60.0001 863.5Z" fill="#E53D27"/>
<path d="M510.5 1183L504.5 1077C431.5 1033.17 279.3 883.2 254.5 634C229.7 384.799 353.5 200.499 418.5 139.499C318.334 206.999 125.5 409.499 155.5 679.5C193 1017 425 1154.5 510.5 1183Z" fill="#25A54B"/>
<path d="M322.5 406.499C315.334 501.833 343.9 731.1 515.5 885.5C730 1078.5 910 1064.5 995.5 1066L1062.5 1140.5C942.667 1179.33 650.4 1196.5 440 954.5C368.834 879.166 245.7 664.1 322.5 406.499Z" fill="#25A54B"/>
<path d="M418.5 659C472.834 754.5 674.2 938.9 1045 912.5H3967C3987.67 942.166 4037 1004.6 4069 1017H1045C898.334 1032.33 567.7 982.2 418.5 659Z" fill="#25A54B"/>
</svg>
