<svg width="403" height="342" viewBox="0 0 403 342" fill="none" xmlns="http://www.w3.org/2000/svg">
<g clip-path="url(#clip0_15_81)">
<path d="M388.495 279.848H14.5055C6.5073 279.848 0 273.328 0 265.314V220.214H403V265.314C403 273.328 396.493 279.848 388.495 279.848Z" fill="#E6E6E6"/>
<path d="M249.903 272.304H154.531V340.559H249.903V272.304Z" fill="#E6E6E6"/>
<path d="M255.64 331.938H148.794V340.559H255.64V331.938Z" fill="#E6E6E6"/>
<path fill-rule="evenodd" clip-rule="evenodd" d="M0 239.254H402.641V9.97382C402.641 4.47436 398.176 0 392.687 0H9.9544C4.46565 0 0 4.47436 0 9.97382V239.254ZM9.32227 10.418H392.961V226.68H9.32227V10.418Z" fill="#3F3D56"/>
<path d="M83.6179 139.316C86.5542 136.885 90.1862 136.433 91.7299 138.305C93.2737 140.178 92.1446 143.666 89.2069 146.097C88.0468 147.085 86.6675 147.779 85.1844 148.123L72.6134 158.266L67.9888 152.254L80.8725 142.893C81.4894 141.498 82.4308 140.272 83.6179 139.316Z" fill="#FFB6B6"/>
<path d="M10.959 162.201C10.9527 161.752 10.9569 157.839 13.8479 155.366C17.1688 152.526 21.8549 153.675 23.4985 154.079C27.2952 155.01 27.6066 156.642 31.1722 158.319C37.8429 161.456 29.4847 159.85 33.454 158.844C34.8279 158.496 54.5941 157.123 59.5143 154.088C69.0835 148.187 75.6035 144.609 75.6035 144.609L79.8658 153.15C79.8658 153.15 73.7025 161.737 65.0282 168.098C56.1303 174.623 51.6814 177.886 44.9202 179.146C44.3379 179.255 30.0183 181.704 18.4849 173.071C15.8542 171.102 11.0341 167.494 10.959 162.201Z" fill="#019577"/>
<path d="M24.1812 140.478C32.3816 140.478 39.0293 133.818 39.0293 125.601C39.0293 117.385 32.3816 110.724 24.1812 110.724C15.9807 110.724 9.33301 117.385 9.33301 125.601C9.33301 133.818 15.9807 140.478 24.1812 140.478Z" fill="#FFB6B6"/>
<path d="M140.466 225.551L125.174 209.868L117.281 218.118L128.674 233.156L139.974 234.451L140.466 225.551Z" fill="#FFB6B6"/>
<path d="M53.1508 196.142C54.0452 196.217 56.8875 196.787 59.6041 195.289C61.4582 194.267 62.409 192.748 62.7302 192.264C66.7145 186.269 82.007 176.919 95.7316 176.344C98.8397 176.214 100.886 176.575 102.745 177.546C105.382 178.923 106.434 180.895 109.78 185.516C111.61 188.044 113.635 190.425 115.488 192.937C126.332 207.64 130.443 208.795 130.023 213.509C129.556 218.739 123.927 223.701 120.185 223.128C118.653 222.893 118.059 221.826 116.012 219.665C110.009 213.328 107.526 214.499 103.252 209.645C98.2624 203.978 98.9156 199.279 96.3123 199.098C93.8982 198.93 92.8723 202.938 87.7184 208.263C85.3601 210.699 83.6807 211.817 78.5645 215.373C58.6406 229.222 58.3226 230.196 54.3018 231.3C52.5426 231.783 40.0566 235.213 35.6088 229.755C28.6484 221.214 45.0917 195.471 53.1508 196.142Z" fill="#2F2E41"/>
<path d="M135.791 229.096C136.916 228.59 138.231 227.998 138.654 226.638C138.94 225.717 138.775 224.582 138.184 223.797C137.501 222.892 136.49 222.773 136.531 222.613C136.594 222.369 138.983 222.465 141.606 223.394C142.101 223.569 144.344 224.39 147.197 226.621C149.482 228.409 149.175 228.768 150.608 229.799C155.007 232.963 159.134 230.469 161.514 233.437C162.433 234.582 162.825 236.208 162.438 237.523C161.662 240.163 157.886 241.072 155.822 241.541C150.852 242.671 147.09 241.748 143.162 241.085C129.803 238.83 122.298 240.884 121.293 237.783C121.103 237.196 121.412 237.246 122.442 232.939C123.458 228.689 123.425 227.521 124.291 227.181C125.594 226.668 126.469 228.999 129.752 229.797C132.662 230.504 135.063 229.424 135.791 229.096Z" fill="#2F2E41"/>
<path d="M113.28 276.857L109.416 255.277L98.2612 257.662L99.2605 276.515L107.885 283.944L113.28 276.857Z" fill="#FFB6B6"/>
<path d="M57.5134 203.396C58.2117 203.961 60.2438 206.032 63.331 206.321C65.4379 206.519 67.0764 205.796 67.613 205.577C74.27 202.858 92.1637 203.725 103.843 210.971C106.487 212.612 107.978 214.062 108.972 215.912C110.382 218.535 110.148 220.759 110.327 226.465C110.424 229.586 110.765 232.696 110.891 235.817C111.623 254.084 114.378 257.352 111.388 261.017C108.071 265.082 100.632 266.02 97.8569 263.441C96.7204 262.385 96.8277 261.168 96.3449 258.227C94.9294 249.607 92.2182 249.178 91.4021 242.757C90.4493 235.261 93.6231 231.741 91.5708 230.126C89.6675 228.628 86.5722 231.368 79.3234 232.874C76.0064 233.563 73.9904 233.543 67.7639 233.607C43.5162 233.857 42.7077 234.483 38.7616 233.135C37.0351 232.545 24.7813 228.358 24.1599 221.339C23.1876 210.356 51.2209 198.306 57.5134 203.396Z" fill="#2F2E41"/>
<path d="M107.426 277.16C108.64 277.374 110.059 277.624 111.172 276.736C111.925 276.136 112.425 275.104 112.375 274.122C112.317 272.989 111.548 272.321 111.671 272.212C111.859 272.045 113.783 273.469 115.433 275.713C115.744 276.137 117.14 278.078 118.25 281.529C119.139 284.295 118.684 284.418 119.292 286.078C121.159 291.171 125.971 291.429 126.277 295.224C126.396 296.689 125.809 298.255 124.752 299.125C122.63 300.873 118.996 299.5 117.026 298.727C112.28 296.866 109.684 293.986 106.805 291.227C97.0157 281.845 89.6538 279.322 90.5604 276.191C90.732 275.598 90.9596 275.813 94.2256 272.829C97.4491 269.884 98.0757 268.899 98.9829 269.105C100.348 269.414 99.7663 271.835 102.036 274.342C104.047 276.564 106.639 277.021 107.426 277.16Z" fill="#2F2E41"/>
<path d="M26.2056 128.445C26.7837 126.374 26.0576 125.619 26.7976 124.689C26.7976 124.689 27.0954 124.314 29.7577 123.305C28.9722 118.738 29.5604 117.966 29.5604 117.966C30.2382 117.076 31.5961 116.861 32.5205 116.977C34.4755 117.224 34.8216 118.994 36.0726 118.955C37.8007 118.9 39.8733 115.434 39.23 112.43C38.7052 109.979 36.4424 108.16 35.8752 108.475C35.3128 108.788 33.2883 107.408 32.5205 107.684C31.9961 107.873 29.528 107.622 28.9684 107.882C28.3572 108.166 26.607 109.935 26.4396 109.712C25.2768 108.163 25.3015 107.623 24.6269 107.289C23.4315 106.698 22.1318 107.791 19.8908 108.871C15.2798 111.093 13.9297 109.767 11.7999 111.639C10.724 112.584 10.1471 114.391 9.03714 117.966C7.48489 122.966 6.70877 125.465 7.45843 127.852C8.22295 130.286 9.34879 129.757 11.0105 133.191C12.8603 137.014 12.2228 139.236 13.9706 140.111C15.3215 140.788 17.4924 140.357 18.3121 139.122C19.7154 137.009 16.0882 134.149 17.3254 130.818C18.0848 128.773 20.4275 127.223 21.8642 127.655C23.4886 128.143 23.6082 131.061 24.6269 131.016C25.4992 130.977 26.1049 128.806 26.2056 128.445Z" fill="#2F2E41"/>
<path d="M14.9571 142.681C17.9956 139.268 30.3719 142.801 31.5336 148.218C32.0114 150.446 30.2475 151.386 30.7442 153.952C31.4707 157.704 35.5844 157.448 38.6378 161.267C42.9727 166.69 38.5068 171.991 43.3739 181.04C44.4139 182.974 45.2905 184.603 47.1233 186.181C51.3292 189.8 55.2434 188.559 57.385 191.915C58.9865 194.424 58.3284 197.517 58.1743 198.242C57.5423 201.213 55.8293 201.937 54.6222 204.371C52.614 208.422 54.8878 211.395 55.0169 216.235C55.1784 222.29 51.967 230.683 45.5446 233.437C38.3293 236.53 29.6271 231.406 25.4161 226.319C22.9033 223.283 22.1739 220.482 21.0746 217.026C16.1616 201.577 13.3861 202.974 9.62896 190.728C5.33391 176.729 4.48956 160.328 9.62896 155.138C10.3102 154.45 12.1848 152.86 13.3784 149.997C14.9845 146.145 13.597 144.209 14.9571 142.681Z" fill="#019577"/>
<path d="M59.8533 222.143C62.2091 225.142 62.5742 228.79 60.6691 230.292C58.7641 231.794 55.3107 230.58 52.9545 227.58C51.9969 226.394 51.3365 224.996 51.0288 223.502L41.2075 210.669L46.2823 206.791L56.3497 219.308C57.7268 219.959 58.9282 220.931 59.8533 222.143Z" fill="#FFB6B6"/>
<path d="M23.8846 155.691C24.3216 155.593 28.1453 154.799 31.1515 157.13C34.6047 159.807 34.4375 164.639 34.3788 166.333C34.2433 170.247 32.7124 170.886 31.8016 174.725C30.0977 181.908 33.3427 188.584 35.1354 192.272C35.756 193.549 37.7496 197.455 41.7181 201.662C49.4364 209.844 56.323 214.149 56.323 214.149L48.9248 220.738C48.9248 220.738 37.1403 217.139 29.1551 209.929C20.9642 202.533 8.36798 176.364 5.75675 169.989C5.53187 169.44 8.71723 178.365 14.7992 165.291C16.1865 162.308 18.7283 156.844 23.8846 155.691Z" fill="#019577"/>
<path d="M24.3867 341.195C24.3867 341.642 24.7446 342 25.1902 342H377.81C378.255 342 378.613 341.642 378.613 341.195C378.613 340.749 378.255 340.39 377.81 340.39H25.1902C24.7446 340.39 24.3867 340.749 24.3867 341.195Z" fill="#3F3D56"/>
<path d="M110.972 150.374C110.877 150.374 110.781 150.371 110.685 150.365C105.035 150.001 85.7016 147.26 74.1598 127.265C73.2086 125.619 73.3961 123.526 74.6257 122.057L96.0008 96.5402C96.8749 95.4967 98.2252 94.8954 99.5928 94.912C100.538 94.9345 102.776 95.1737 103.21 96.9022C105.778 107.114 116.621 119.122 129.661 120.713C130.982 120.874 132.043 122.056 132.499 123.874C132.854 125.289 132.526 126.747 131.598 127.876L114.475 148.709C113.605 149.767 112.328 150.374 110.972 150.374ZM99.5107 95.9384C98.4662 95.9384 97.4502 96.4073 96.786 97.2001L75.4112 122.717C74.4573 123.856 74.3112 125.477 75.0469 126.75C86.3342 146.305 105.229 148.984 110.751 149.34C111.879 149.415 112.962 148.934 113.683 148.056L130.807 127.223C131.526 126.349 131.78 125.22 131.505 124.124C131.236 123.051 130.578 121.86 129.537 121.732C116.066 120.089 104.867 107.694 102.217 97.153C102.002 96.2995 100.709 95.966 99.5715 95.9389C99.5512 95.9384 99.5309 95.9384 99.5107 95.9384Z" fill="#3F3D56"/>
<path d="M87.1132 128.105L102.524 112.361C103.577 111.285 101.927 109.629 100.872 110.706L85.4615 126.45C84.4081 127.526 86.0585 129.182 87.1132 128.105Z" fill="#E6E6E6"/>
<path d="M96.4145 132.54C100.668 128.721 104.363 124.298 107.39 119.446C108.189 118.165 106.169 116.989 105.373 118.265C102.447 122.956 98.874 127.193 94.7628 130.886C93.641 131.893 95.2975 133.544 96.4145 132.54Z" fill="#E6E6E6"/>
<path d="M104.797 137.851C108.669 133.554 111.966 128.757 114.561 123.583C115.234 122.241 113.219 121.054 112.544 122.402C110.036 127.401 106.887 132.043 103.145 136.197C102.14 137.312 103.787 138.972 104.797 137.851Z" fill="#E6E6E6"/>
<path d="M98.195 109.508C106.776 109.508 113.732 102.686 113.732 94.2694C113.732 85.853 106.776 79.0303 98.195 79.0303C89.6143 79.0303 82.6582 85.853 82.6582 94.2694C82.6582 102.686 89.6143 109.508 98.195 109.508Z" fill="#019577"/>
<path d="M106.279 101.498C103.89 95.612 101.5 89.7257 99.1109 83.8394C98.7809 83.0264 97.7471 82.9975 97.425 83.8394C95.064 90.0107 93.5212 96.4503 92.7795 103.016C92.6532 104.134 94.4025 104.125 94.5278 103.016C94.8181 100.447 95.249 97.8966 95.8022 95.3737C97.7712 95.4772 99.7563 95.2559 101.656 94.7288C102.635 97.1406 103.614 99.5523 104.594 101.964C105.012 102.995 106.704 102.544 106.279 101.498ZM96.1986 93.6419C96.7875 91.2267 97.4935 88.8401 98.3127 86.4919L100.992 93.0929C99.4228 93.5057 97.8177 93.6893 96.1986 93.6419Z" fill="white"/>
<ellipse cx="282.5" cy="117.93" rx="55.5" ry="55.9302" fill="#019577"/>
<path fill-rule="evenodd" clip-rule="evenodd" d="M256.03 152.721V88.4688C260.584 86.9034 273.107 84.2422 286.769 86.1207C303.846 88.4688 317.294 92.738 317.294 111.523C317.294 130.307 301.711 137.138 286.769 137.565C274.815 137.906 268.696 137.707 267.13 137.565V152.721H256.03ZM267.13 97.2207V127.319C267.597 127.319 268.417 127.402 269.545 127.516C272.03 127.769 276.013 128.173 281.005 128.173C294.453 128.173 300.644 124.544 304.059 118.994C307.475 113.444 307.261 101.063 294.453 97.2207C284.207 94.1468 271.969 95.9399 267.13 97.2207Z" fill="white"/>
</g>
<defs>
<clipPath id="clip0_15_81">
<rect width="403" height="342" fill="white"/>
</clipPath>
</defs>
</svg>
